<?xml version="1.0" standalone="no"?>
<!DOCTYPE svg PUBLIC "-//W3C//DTD SVG 20010904//EN"
 "http://www.w3.org/TR/2001/REC-SVG-20010904/DTD/svg10.dtd">
<svg version="1.0" xmlns="http://www.w3.org/2000/svg"
 width="600.000000pt" height="600.000000pt" viewBox="0 0 600.000000 600.000000"
 preserveAspectRatio="xMidYMid meet">
<metadata>
Created by potrace 1.11, written by Peter Selinger 2001-2013
</metadata>
<g transform="translate(0.000000,600.000000) scale(0.100000,-0.100000)"
fill="#000000" stroke="none">
<path d="M333 5246 c-66 -21 -111 -54 -141 -104 -24 -41 -27 -57 -27 -133 0
-78 3 -90 30 -135 24 -37 44 -56 90 -79 53 -27 69 -30 172 -34 l113 -3 0 -958
0 -958 -113 -3 c-103 -4 -119 -7 -172 -34 -46 -23 -66 -42 -90 -79 -27 -45
-30 -57 -30 -136 0 -79 3 -91 30 -136 24 -37 44 -56 90 -79 l59 -30 526 0 526
0 59 30 c46 23 66 42 90 79 27 45 30 57 30 136 0 79 -3 91 -30 136 -24 37 -45
56 -90 79 -57 29 -63 30 -222 33 l-163 4 0 304 0 304 238 0 237 0 65 -37 c198
-117 579 -579 791 -962 l62 -112 277 3 276 3 59 30 c45 23 66 42 90 79 27 45
30 57 30 136 0 79 -3 91 -30 136 -24 37 -45 56 -89 79 -52 26 -72 30 -165 34
l-106 4 -87 131 c-127 190 -255 351 -403 504 -71 75 -125 137 -120 139 23 7
155 99 218 151 122 99 208 217 260 356 27 72 31 96 35 218 3 106 0 155 -13
215 -79 359 -389 616 -830 688 -124 21 -1467 21 -1532 1z m1363 -496 c227 -20
392 -113 456 -257 28 -64 23 -178 -12 -247 -46 -90 -162 -177 -307 -229 -126
-46 -219 -57 -500 -64 l-263 -6 0 406 0 407 258 0 c141 0 307 -5 368 -10z"/>
<path d="M3035 3696 c-128 -41 -175 -105 -175 -238 1 -167 86 -238 293 -246
l107 -4 0 -958 0 -957 -68 -5 c-86 -6 -159 -44 -199 -101 -24 -34 -29 -52 -32
-120 -6 -134 30 -202 131 -248 l53 -24 470 0 c469 0 470 0 520 23 100 46 135
103 135 222 0 119 -35 176 -135 222 -44 20 -69 23 -207 26 l-158 4 0 719 c0
395 2 719 4 719 2 0 290 -436 641 -970 l637 -970 254 0 254 0 0 1209 0 1208
68 5 c85 6 159 44 198 100 23 33 28 52 32 122 7 134 -28 201 -130 247 l-53 24
-470 0 c-469 0 -470 0 -520 -23 -100 -46 -135 -103 -135 -222 0 -119 35 -176
135 -222 44 -20 69 -23 208 -26 l157 -4 0 -726 0 -727 -103 157 c-56 86 -343
526 -637 977 l-535 820 -350 0 c-254 0 -361 -4 -390 -13z"/>
</g>
</svg>
